<svg xmlns="http://www.w3.org/2000/svg" viewBox="0 0 238.92 238.92">
  <defs>
    <style>.cls-1 {
      isolation: isolate;
    }

    .cls-2 {
      fill: #8b77e8;
    }

    .cls-3, .cls-7 {
      fill: #f2f0ff;
    }

    .cls-4 {
      fill: #7860dc;
    }

    .cls-5 {
      fill: #634ac9;
    }

    .cls-6 {
      opacity: 0.5;
    }

    .cls-7 {
      mix-blend-mode: multiply;
    }</style>
  </defs>
  <g class="cls-1">
    <g id="Layer_2" data-name="Layer 2">
      <g id="Layer_1-2" data-name="Layer 1">
        <circle class="cls-2" cx="119.46" cy="119.46" r="119.46"/>
        <path class="cls-3"
              d="M230.31,119.46A110.81,110.81,0,0,1,66.79,217q-4.85-2.62-9.37-5.69A111.13,111.13,0,0,1,35.56,191.9q-2.88-3.33-5.49-6.88A110.86,110.86,0,0,1,132.76,9.41a109.55,109.55,0,0,1,22.57,5.14q4.18,1.42,8.21,3.18a110.52,110.52,0,0,1,25.05,15.08,105,105,0,0,1,8.22,7.26,109,109,0,0,1,8.76,9.59A110.36,110.36,0,0,1,230.31,119.46Z"/>
        <path class="cls-4" d="M130.89,119.46A11.43,11.43,0,1,1,119.46,108,11.43,11.43,0,0,1,130.89,119.46Z"/>
        <circle class="cls-4" cx="120.57" cy="18.55" r="6.25"/>
        <path class="cls-5"
              d="M120.57,21.9a6.25,6.25,0,0,1-6.07-4.8,6.32,6.32,0,0,0-.17,1.45,6.25,6.25,0,1,0,12.49,0,6.32,6.32,0,0,0-.17-1.45A6.26,6.26,0,0,1,120.57,21.9Z"/>
        <circle class="cls-4" cx="119.46" cy="211.39" r="6.25"/>
        <path class="cls-5"
              d="M119.46,215.82a6.24,6.24,0,0,1-6.17-5.34,5.5,5.5,0,0,0-.08.91,6.25,6.25,0,0,0,12.5,0,6.84,6.84,0,0,0-.07-.91A6.26,6.26,0,0,1,119.46,215.82Z"/>
        <circle class="cls-4" cx="25.6" cy="119.46" r="6.25"/>
        <path class="cls-5"
              d="M26.2,123.74A6.24,6.24,0,0,1,20,117.49a5.69,5.69,0,0,1,.06-.83,6.15,6.15,0,0,0-.67,2.8,6.24,6.24,0,0,0,12.43.83A6.23,6.23,0,0,1,26.2,123.74Z"/>
        <circle class="cls-4" cx="213.72" cy="118.98" r="6.25"/>
        <path class="cls-5"
              d="M218.94,115.55a6.32,6.32,0,0,1,.27,1.8,6.25,6.25,0,0,1-11.47,3.43,6.25,6.25,0,1,0,11.2-5.23Z"/>
        <path class="cls-5" d="M124.31,119.46a4.85,4.85,0,1,1-4.85-4.85A4.85,4.85,0,0,1,124.31,119.46Z"/>
        <g class="cls-6">
          <path class="cls-7"
                d="M188.59,32.81,57.42,211.33A111.13,111.13,0,0,1,35.56,191.9l128-174.17A110.52,110.52,0,0,1,188.59,32.81Z"/>
          <path class="cls-7" d="M205.57,49.66l-127,172.86A110.69,110.69,0,0,1,66.79,217l130-177Z"/>
          <path class="cls-7"
                d="M155.33,14.55,30.07,185a110.8,110.8,0,0,1-11.68-20L132.76,9.41A109.55,109.55,0,0,1,155.33,14.55Z"/>
        </g>
      </g>
    </g>
  </g>
</svg>
