<svg xmlns="http://www.w3.org/2000/svg" viewBox="0 0 1835.51 635.83"><g id="Layer_2" data-name="Layer 2"><g id="Layer_4" data-name="Layer 4"><path d="M845.72,53.83c-4.47-1.77-9.29-2.21-16.82-1.25a14.37,14.37,0,0,0-5.08-7.11C834.5,48.83,842.06,51.83,845.72,53.83Z" style="fill:#f9f9f9"/><path d="M823.81,45.47c-5.61-1.77-12.09-3.64-19.32-5.52C813.51,40.42,819.78,42.38,823.81,45.47Z" style="fill:#fcfcfc"/><path d="M713.58,4.58C375.1-36.59,0,213.3,0,213.3c166.07-17.7,342.57-25.42,493-38.68,39.49-31.09,82.15-59.11,127.47-81.19C470.67,115,204.93,162.51,107.72,171.83c0,0,363-172,612.76-146.79a564,564,0,0,1,84,14.91c7.23,1.88,13.71,3.75,19.32,5.52h0a14.37,14.37,0,0,1,5.08,7.11c5.15,16-15,44-35.34,67C864.37,91.4,963.25,34.94,713.58,4.58Z" style="fill:#2d358e"/><path d="M811.17,41.75c4.59,1.27,8.82,2.52,12.64,3.72h0a14.37,14.37,0,0,1,5.08,7.11c8.33,25.77-49.48,83-67.1,99.75-2.92,2.78-18.63,16.76-21.78,19.29C621.33,266.9,395.89,397.07,200.73,518.82c.94-1.69,88.64-158.17,230.64-291.11C219.94,401.89,86.71,635.83,86.71,635.83c244.53-157.3,527-303,675.71-426.08,4-3.27,23.63-21.33,27.29-24.92C820.76,154.39,951.33,20.62,811.17,41.75Z" style="fill:#faae1a"/><path d="M655.58,631.82a68.74,68.74,0,0,0-1.75-20.67,79.33,79.33,0,0,0-3-9.68,83.11,83.11,0,0,0-4-9.22c-6-12-14.26-22.79-23.43-32.64a193.94,193.94,0,0,0-30.52-26.38c-5.47-3.86-11.55-7.49-17.61-11.73s-12.33-8.92-17.81-15A60.88,60.88,0,0,1,550,496.32a57.46,57.46,0,0,1-4.81-11.46,62.58,62.58,0,0,1-2.49-24.19A56.64,56.64,0,0,1,550.3,437,51.33,51.33,0,0,1,558.18,427a60.38,60.38,0,0,1,9.9-7.63,70.14,70.14,0,0,1,10.64-5.65A53.41,53.41,0,0,1,590.43,410a45.57,45.57,0,0,1,24.05,1.8,54.4,54.4,0,0,1,19,12.13A88.8,88.8,0,0,1,647,440.66a122.31,122.31,0,0,0-16.52-13.09,54.91,54.91,0,0,0-18.57-7.77A37.66,37.66,0,0,0,593,421a54.4,54.4,0,0,0-16.85,9.38,36.74,36.74,0,0,0-6.64,6.43,35.32,35.32,0,0,0-4.63,7.46A42.88,42.88,0,0,0,561,461.36a49.53,49.53,0,0,0,2.75,17.43,40.83,40.83,0,0,0,8.71,14.64c8.06,8.78,20.18,15.73,32.11,24.71a164.27,164.27,0,0,1,31.32,31.4c8.84,11.76,16.21,24.8,20.34,39a77.39,77.39,0,0,1,3.29,21.83,69.09,69.09,0,0,1-.94,11A57.92,57.92,0,0,1,655.58,631.82Z" style="fill:#faae1a"/><path d="M799.33,573.1a62.07,62.07,0,0,1-32.1-21.63c-8.14-10.73-12.41-24.13-13.67-37.32s0-26.52,2.19-39.16c1-6.38,2.47-12.45,3.38-18.27S761,445,761.35,439.17c1-11.6.52-23-2.07-33.79a77.4,77.4,0,0,0-2.38-7.91,60.55,60.55,0,0,0-3.21-7.48,47.26,47.26,0,0,0-9.6-12.46,35.93,35.93,0,0,0-6.29-4.68,34.75,34.75,0,0,0-7.08-3.35,33.51,33.51,0,0,0-15.56-1.59,31.78,31.78,0,0,0-14.77,6.15,39.14,39.14,0,0,0-6,5.83,48.59,48.59,0,0,0-4.82,7.2l-7-2.72a46.74,46.74,0,0,1,11-17.7,42.34,42.34,0,0,1,19.27-10.79A46.87,46.87,0,0,1,724,354.47a50.28,50.28,0,0,1,11.1,1.39,51.29,51.29,0,0,1,19.66,9.56A59.54,59.54,0,0,1,769,381.34c1.81,3.06,3.43,6.09,4.88,9.2a98.08,98.08,0,0,1,3.64,9.63,95,95,0,0,1,3.84,20,127.41,127.41,0,0,1,0,20,172.06,172.06,0,0,1-2.8,19.5c-1.34,6.46-2.87,12.55-4.28,18.43-2.74,11.8-4.89,23.45-5.12,35s1.47,22.93,6.41,33.32a62.52,62.52,0,0,0,9.84,14.5A87.32,87.32,0,0,0,799.33,573.1Z" style="fill:#faae1a"/><path d="M697.3,415.79a36,36,0,0,0-4.73-15.53A34.47,34.47,0,0,0,683,389c-7.61-5.68-17.32-6.94-27.6-5.83-1.28.22-2.57.26-3.87.52s-2.68.42-3.74.67a50.86,50.86,0,0,0-7.17,2.19,65.35,65.35,0,0,0-13.79,7.08,42.77,42.77,0,0,0-11.11,10.65,38.78,38.78,0,0,0-6.28,15.19,27.83,27.83,0,0,1-.55-18.07A39.48,39.48,0,0,1,619.05,385a57.59,57.59,0,0,1,16-11.16,56,56,0,0,1,9.42-3.47c1.79-.46,3.27-.68,4.87-1s3.21-.49,4.81-.68A52.67,52.67,0,0,1,674,370.22a36.85,36.85,0,0,1,17.19,10.54,35,35,0,0,1,8.29,17.15,32.69,32.69,0,0,1,.35,9.2A21.86,21.86,0,0,1,697.3,415.79Z" style="fill:#faae1a"/><path d="M663.61,628.81c12.58-4.09,24.43-7.53,36.1-11.27s23-7.64,34.06-11.93c5.61-2,11-4.49,16.5-6.79,2.78-1.1,5.33-2.6,8.09-3.77l4.1-1.86c1.36-.63,2.64-1.38,4-2.07,2.65-1.4,5.37-2.74,8.14-4.08q3.88-2.31,8-4.52l4.16-2.21c1.32-.82,2.63-1.67,4-2.47,2.71-1.64,5.56-3.21,8.58-4.74a96,96,0,0,1-4.68,8.54c-.83,1.41-1.73,2.78-2.61,4.18s-2,2.54-3,3.82c-2.1,2.51-4.26,5-6.5,7.46-2.38,2.26-4.86,4.45-7.38,6.62-1.27,1.06-2.51,2.19-3.83,3.19l-4.09,2.83c-2.74,1.86-5.49,3.79-8.39,5.41s-5.88,3.09-8.83,4.64-6.1,2.6-9.16,3.9a137.64,137.64,0,0,1-38.43,8.84c-3.28.18-6.54.4-9.8.39s-6.53-.08-9.78-.4a96.41,96.41,0,0,1-9.7-1.27A61.78,61.78,0,0,1,663.61,628.81Z" style="fill:#faae1a"/><path d="M785,564c-1.23,1.12-2.12,1.83-3.16,2.65s-2,1.55-3,2.3c-2,1.49-4.06,2.86-6.12,4.21s-4.14,2.64-6.27,3.84-4.22,2.43-6.38,3.53a193.7,193.7,0,0,1-26.48,11.43c-2.26.78-4.55,1.45-6.82,2.17l-3.4,1.06-3.45.89L713,597.82,706,599.23c-4.59,1-9.29,1.52-13.9,2.27s-9.31.9-13.93,1.37c4.53-1.17,9.06-2.17,13.52-3.46s8.91-2.57,13.21-4.28l6.49-2.39,6.34-2.7,3.16-1.36,3.09-1.5c2-1,4.11-2,6.13-3a181.48,181.48,0,0,0,22.93-14.36c1.82-1.3,3.57-2.67,5.28-4.08s3.39-2.83,5-4.27,3.23-2.94,4.73-4.46c.76-.76,1.52-1.52,2.21-2.28s1.46-1.61,1.86-2.13Z" style="fill:#faae1a"/><path d="M754.41,574.92c-6.32-7.36-10.46-15.12-14.26-23.06a192.71,192.71,0,0,1-9.35-24.36,181.58,181.58,0,0,1-5.95-25.23,106,106,0,0,1-1.21-25.77,104.29,104.29,0,0,0,4.28,25.07,176.15,176.15,0,0,0,8.77,23.7,184.71,184.71,0,0,0,11.8,22.16c4.4,7,9.42,13.81,15,18.85Z" style="fill:#faae1a"/><path d="M726.79,591.92a142,142,0,0,1-9-15,162.07,162.07,0,0,1-7.12-15.53,129.88,129.88,0,0,1-5.26-16.14,108.37,108.37,0,0,1-2.89-16.58,106.74,106.74,0,0,0,5.85,15.52,127.37,127.37,0,0,0,7.93,14.4A158.8,158.8,0,0,0,725.8,572a135.9,135.9,0,0,0,10.67,12Z" style="fill:#faae1a"/><text transform="translate(1009.79 241.81)" style="font-size:152.40042114257812px;fill:#2d358e;font-family:Ubuntu-Medium, Ubuntu;font-weight:500">Run</text><text transform="translate(1000.79 467.59)" style="font-size:270.4004211425781px;fill:#faae1a;font-family:Ubuntu-Medium, Ubuntu;font-weight:500">Restro</text><text/></g></g></svg>