<svg xmlns="http://www.w3.org/2000/svg" viewBox="0 0 456.71 377.3"><defs><style>.cls-1{isolation:isolate;}.cls-2{fill:#c8c2ed;}.cls-3{fill:#7860dc;}.cls-4{fill:#634ac9;}.cls-5{fill:#8b77e8;}.cls-10,.cls-6{fill:#f2f0ff;}.cls-7{fill:#d93f27;}.cls-8{fill:#ff5b41;}.cls-9{opacity:0.5;}.cls-10{mix-blend-mode:multiply;}.cls-11{font-size:22px;fill:#999;font-family:Roboto-Regular, Roboto;}.cls-12{letter-spacing:-0.01em;}.cls-13{letter-spacing:-0.01em;}.cls-14{letter-spacing:-0.01em;}.cls-15{letter-spacing:-0.01em;}.cls-16{letter-spacing:-0.02em;}</style></defs><g class="cls-1"><g id="Layer_1" data-name="Layer 1"><path class="cls-2" d="M477.76,376.25H22.85c-.5,0-.9-.28-.9-.62s.4-.63.9-.63H477.76c.5,0,.9.28.9.63S478.26,376.25,477.76,376.25Z" transform="translate(-21.95 -46.48)"/><circle class="cls-3" cx="158.77" cy="304.86" r="24.58"/><path class="cls-4" d="M183.75,370.16a24.61,24.61,0,0,1-23.1-33,24.58,24.58,0,1,0,43.16,22.62A24.51,24.51,0,0,1,183.75,370.16Z" transform="translate(-21.95 -46.48)"/><circle class="cls-3" cx="297.73" cy="304.86" r="24.58"/><path class="cls-4" d="M339.1,336.29a24.58,24.58,0,0,1-42.64,23.13,24.58,24.58,0,1,0,42.64-23.13Z" transform="translate(-21.95 -46.48)"/><circle class="cls-5" cx="228.05" cy="197.06" r="119.46"/><path class="cls-6" d="M360.85,243.54a110.92,110.92,0,0,1-151.75,103,106.89,106.89,0,0,1-11.77-5.5q-4.85-2.61-9.37-5.68A111.22,111.22,0,0,1,166.1,316q-2.88-3.32-5.49-6.88A110.85,110.85,0,0,1,250,132.69a112.29,112.29,0,0,1,13.3.79,110.51,110.51,0,0,1,22.57,5.14q4.19,1.44,8.21,3.18a110.77,110.77,0,0,1,25.05,15.09,108.92,108.92,0,0,1,8.22,7.25,112,112,0,0,1,8.76,9.59A110.39,110.39,0,0,1,360.85,243.54Z" transform="translate(-21.95 -46.48)"/><path class="cls-3" d="M261.43,243.54A11.43,11.43,0,1,1,250,232.11,11.42,11.42,0,0,1,261.43,243.54Z" transform="translate(-21.95 -46.48)"/><circle class="cls-3" cx="229.16" cy="96.15" r="6.25"/><path class="cls-4" d="M251.11,146a6.24,6.24,0,0,1-6.07-4.8,6.33,6.33,0,0,0-.18,1.45,6.25,6.25,0,0,0,12.5,0,6.33,6.33,0,0,0-.18-1.45A6.24,6.24,0,0,1,251.11,146Z" transform="translate(-21.95 -46.48)"/><circle class="cls-3" cx="228.05" cy="288.98" r="6.25"/><path class="cls-4" d="M250,339.89a6.24,6.24,0,0,1-6.17-5.34,5.5,5.5,0,0,0-.08.91,6.25,6.25,0,1,0,12.5,0,5.5,5.5,0,0,0-.08-.91A6.24,6.24,0,0,1,250,339.89Z" transform="translate(-21.95 -46.48)"/><circle class="cls-3" cx="134.19" cy="197.06" r="6.25"/><path class="cls-4" d="M156.74,247.81a6.24,6.24,0,0,1-6.25-6.24,5.57,5.57,0,0,1,.07-.83,6.12,6.12,0,0,0-.67,2.8,6.24,6.24,0,0,0,12.43.82A6.22,6.22,0,0,1,156.74,247.81Z" transform="translate(-21.95 -46.48)"/><circle class="cls-3" cx="322.31" cy="196.57" r="6.25"/><path class="cls-4" d="M349.48,239.63a6.25,6.25,0,0,1-11.21,5.22,6.25,6.25,0,1,0,11.21-5.22Z" transform="translate(-21.95 -46.48)"/><rect class="cls-4" x="224.46" y="194.93" width="100.1" height="6.12" rx="3.06"/><rect class="cls-3" x="224.46" y="193.06" width="100.1" height="6.12" rx="3.06"/><rect class="cls-7" x="223.2" y="193.23" width="72.52" height="9.68" rx="4.84"/><rect class="cls-8" x="223.2" y="190.96" width="72.52" height="9.68" rx="4.84"/><path class="cls-4" d="M254.85,243.54a4.85,4.85,0,1,1-4.85-4.85A4.85,4.85,0,0,1,254.85,243.54Z" transform="translate(-21.95 -46.48)"/><g class="cls-9"><path class="cls-10" d="M319.13,156.89,188,335.41A111.22,111.22,0,0,1,166.1,316l128-174.17A110.77,110.77,0,0,1,319.13,156.89Z" transform="translate(-21.95 -46.48)"/><path class="cls-10" d="M336.11,173.73l-127,172.86a106.89,106.89,0,0,1-11.77-5.5l130-176.95Z" transform="translate(-21.95 -46.48)"/><path class="cls-10" d="M285.87,138.62,160.61,309.09a110.13,110.13,0,0,1-11.68-20L263.3,133.48A110.51,110.51,0,0,1,285.87,138.62Z" transform="translate(-21.95 -46.48)"/></g><path class="cls-6" d="M148.7,70.21a14.48,14.48,0,0,0-14.4-12.42,14.66,14.66,0,0,0-4.43.68,6.28,6.28,0,0,0,.34-2,6.9,6.9,0,0,0-7.15-6.61,7.43,7.43,0,0,0-4.74,1.67,23.61,23.61,0,0,0-14.68-5c-10.85,0-19.92,7.08-22.17,16.54a4.91,4.91,0,0,0-4.1-2.56,5.06,5.06,0,0,0-4.37,3,8,8,0,0,0-6.1-3c-4.49,0-8.21,4.22-8.93,9.75Z" transform="translate(-21.95 -46.48)"/><path class="cls-6" d="M397.19,154.57h68.94S469,138.83,454,144.4c0,0,2.9-13.56-10.9-13.56s-11.35,14.29-11.35,14.29-10.2-9-16,2.91C415.76,148,398.48,138.35,397.19,154.57Z" transform="translate(-21.95 -46.48)"/><text class="cls-11" transform="translate(12.73 371.34)">NO <tspan class="cls-12" x="36.25" y="0">A</tspan><tspan class="cls-13" x="50.49" y="0">C</tspan><tspan x="64.5" y="0">TIVE F</tspan><tspan class="cls-14" x="127.71" y="0">O</tspan><tspan class="cls-15" x="142.6" y="0">V</tspan><tspan x="156.46" y="0">OR</tspan><tspan class="cls-13" x="185.13" y="0">I</tspan><tspan x="190.8" y="0">TE MENU FOR</tspan><tspan class="cls-16" x="329.82" y="0"> </tspan><tspan x="334.83" y="0">THIS</tspan><tspan class="cls-16" x="382.68" y="0"> </tspan><tspan x="387.7" y="0">TIME</tspan></text></g></g></svg>