<svg xmlns="http://www.w3.org/2000/svg" viewBox="0 0 35.28 35.28"><defs><style>.cls-1{fill:none;}.cls-2{fill:#fff6f3;}.cls-3{fill:none;}</style></defs><g id="Layer_2" data-name="Layer 2"><g id="Layer_1-2" data-name="Layer 1"><circle class="cls-1" cx="17.64" cy="17.64" r="17.64"/><path class="cls-2" d="M16.3,29.59a1.36,1.36,0,0,0,.39.95A1.34,1.34,0,0,0,19,29.59V19H29.59a1.33,1.33,0,0,0,1.34-1.34,1.34,1.34,0,0,0-1.34-1.34H19V5.69a1.35,1.35,0,0,0-.39-1,1.36,1.36,0,0,0-.95-.39A1.34,1.34,0,0,0,16.3,5.69V16.3H5.69a1.34,1.34,0,0,0,0,2.68H16.3Z"/><rect class="cls-3" x="0.14" y="0.14" width="35" height="35"/></g></g></svg>
