<svg xmlns="http://www.w3.org/2000/svg" viewBox="0 0 35 35"><defs><style>.cls-1,.cls-3{fill:none;}.cls-1{stroke:#2c398f;stroke-miterlimit:10;stroke-width:2px;}.cls-2{fill:#2c398f;}</style></defs><g id="Layer_2" data-name="Layer 2"><g id="Layer_1-2" data-name="Layer 1"><circle class="cls-1" cx="17.5" cy="17.5" r="16.5"/><path class="cls-2" d="M16.25,28.68a1.28,1.28,0,0,0,.36.89,1.3,1.3,0,0,0,.89.36,1.25,1.25,0,0,0,1.25-1.25V18.75h9.93a1.28,1.28,0,0,0,.89-.36,1.3,1.3,0,0,0,.36-.89,1.25,1.25,0,0,0-1.25-1.25H18.75V6.32a1.28,1.28,0,0,0-.36-.89,1.3,1.3,0,0,0-.89-.36,1.25,1.25,0,0,0-1.25,1.25v9.93H6.32a1.28,1.28,0,0,0-.89.36,1.3,1.3,0,0,0-.36.89,1.25,1.25,0,0,0,1.25,1.25h9.93Z"/><rect class="cls-3" width="35" height="35"/></g></g></svg>