<svg xmlns="http://www.w3.org/2000/svg" viewBox="0 0 66.82 62.03"><defs><style>.cls-1{fill:#ffffff;}</style></defs><g id="Layer_2" data-name="Layer 2"><g id="Layer_1-2" data-name="Layer 1"><path class="cls-1" d="M32.78,56.89,8.51,32.34,5.1,28.89v4.24L29.37,8.59l3.41-3.46c2.72-2.74-1.52-7-4.24-4.24L4.27,25.44.86,28.89a3,3,0,0,0,0,4.24L25.13,57.68l3.41,3.45c2.72,2.75,7-1.49,4.24-4.24Z"/><path class="cls-1" d="M4.63,34l20.06-.37,31.94-.59,7.29-.14c3.86-.07,3.87-6.07,0-6l-20.06.38-31.94.59L4.63,28c-3.86.07-3.87,6.07,0,6Z"/></g></g></svg>