<svg xmlns="http://www.w3.org/2000/svg" viewBox="0 0 35 35.52"><defs><style>.cls-1{fill:#283b90;}.cls-2,.cls-3{fill:none;}.cls-2{stroke:#283b90;stroke-linecap:round;stroke-miterlimit:10;stroke-width:3px;}</style></defs><g id="Layer_2" data-name="Layer 2"><g id="Layer_1-2" data-name="Layer 1"><path class="cls-1" d="M26.84,5.41h0a.8.8,0,0,1,.8.8v25.7a0,0,0,0,1,0,0H26a0,0,0,0,1,0,0V6.21A.8.8,0,0,1,26.84,5.41Z"/><path class="cls-1" d="M7.19,14.81h0a.8.8,0,0,1,.8.8V31.91a0,0,0,0,1,0,0H6.39a0,0,0,0,1,0,0V15.61A.8.8,0,0,1,7.19,14.81Z"/><path class="cls-1" d="M12.32,9.4h0a.8.8,0,0,1,.8.8V31.91a0,0,0,0,1,0,0h-1.6a0,0,0,0,1,0,0V10.2a.8.8,0,0,1,.8-.8Z"/><path class="cls-1" d="M17.16,0h0a.8.8,0,0,1,.8.8V31.91a0,0,0,0,1,0,0h-1.6a0,0,0,0,1,0,0V.8a.8.8,0,0,1,.8-.8Z"/><path class="cls-1" d="M22,18.52h0a.8.8,0,0,1,.8.8V31.91a0,0,0,0,1,0,0H21.2a0,0,0,0,1,0,0V19.31a.8.8,0,0,1,.8-.8Z"/><line class="cls-2" x1="4.54" y1="34.02" x2="30.46" y2="34.02"/><rect class="cls-3" width="35" height="35"/></g></g></svg>