<svg xmlns="http://www.w3.org/2000/svg" viewBox="0 0 35 35"><defs><style>.cls-1{fill:none;}.cls-2{fill:#2e388d;}.cls-3,.cls-4{fill:#fff;}.cls-4{font-size:9.65px;font-family:Ubuntu-Medium, Ubuntu;font-weight:500;}</style></defs><g id="Layer_2" data-name="Layer 2"><g id="Layer_1-2" data-name="Layer 1"><path class="cls-1" d="M0,0V35H35V0ZM25.22,31V29.88"/><path class="cls-2" d="M33.94,4.41V34.55a.23.23,0,0,1-.23.24h0L32.3,32.34l-1.36,2.38-1.33-2.38-1.36,2.42L26.9,32.34l-1.37,2.27-1.34-2.27-1.35,2.42-1.36-2.42-1.34,2.42-1.35-2.35-1.31,2.27-1.4-2.34-1.36,2.42-1.35-2.42L12,34.72l-1.34-2.31L9.32,34.76,8,32.34,6.59,34.72,5.26,32.41,4,34.68,2.64,32.41,1.26,34.78a.21.21,0,0,1-.2-.23V4.41A4.2,4.2,0,0,1,5.25.21h24.5A4.2,4.2,0,0,1,33.94,4.41Z"/><rect class="cls-3" x="4.48" y="13.46" width="3.96" height="1.97" rx="0.95"/><rect class="cls-3" x="9.77" y="13.46" width="20.76" height="1.97" rx="0.95"/><rect class="cls-3" x="4.48" y="17.87" width="3.96" height="1.97" rx="0.95"/><rect class="cls-3" x="9.77" y="17.87" width="20.76" height="1.97" rx="0.95"/><rect class="cls-3" x="4.48" y="22.27" width="3.96" height="1.97" rx="0.95"/><rect class="cls-3" x="9.77" y="22.27" width="20.76" height="1.97" rx="0.95"/><rect class="cls-3" x="4.48" y="26.68" width="3.96" height="1.97" rx="0.95"/><rect class="cls-3" x="9.77" y="26.68" width="20.76" height="1.97" rx="0.95"/><text class="cls-4" transform="translate(14.76 10.43)">$</text></g></g></svg>