<svg xmlns="http://www.w3.org/2000/svg" viewBox="0 0 35 35.01"><defs><style>.cls-1{fill:none;}.cls-2{fill:#283e90;}</style></defs><g id="Layer_2" data-name="Layer 2"><g id="Layer_1-2" data-name="Layer 1"><rect class="cls-1" y="0.01" width="35" height="35"/><path class="cls-2" d="M35,33a1,1,0,0,1-1,.46H20.86a2.12,2.12,0,0,1-.44,0,.65.65,0,0,1-.52-.7.66.66,0,0,1,.58-.62,3.38,3.38,0,0,1,.45,0H33.61V30.24H1.39v1.83H14.08a3.38,3.38,0,0,1,.45,0,.67.67,0,0,1,.08,1.31,1.39,1.39,0,0,1-.41,0H.91c-.68,0-.91-.22-.91-.9V29.66c0-.56.25-.81.82-.81.78,0,1.57,0,2.37,0V13.23l-.52.29-1.55.87A.7.7,0,0,1,0,13.74c0-1.16,0-2.32,0-3.49a.78.78,0,0,1,.44-.74L17.09.11A.85.85,0,0,1,18,.17L30.06,7c1.44.82,2.89,1.63,4.33,2.46a3.73,3.73,0,0,1,.61.52V14c-.34.55-.63.62-1.21.3l-2-1.12V28.8l.08,0c.75,0,1.5,0,2.25,0a.83.83,0,0,1,.87.51Zm-4.58-4.15v-.39c0-5.21,0-10.43,0-15.65a.53.53,0,0,0-.33-.55L17.82,5.32a.54.54,0,0,0-.62,0q-6.15,3.5-12.33,7a.48.48,0,0,0-.29.5q0,7.85,0,15.69c0,.12,0,.24,0,.37Zm3.21-16.15c0-.65,0-1.23,0-1.81a.47.47,0,0,0-.28-.48Q25.56,6,17.78,1.6a.5.5,0,0,0-.55,0L8.05,6.79C5.91,8,3.76,9.2,1.63,10.42c-.11.06-.25.18-.25.27,0,.64,0,1.29,0,2l.34-.18L17,3.86a1,1,0,0,1,1.05,0l12.72,7.19Z"/><path class="cls-2" d="M24.1,17.15c-.38-.1-.75-.2-1.11-.27a.74.74,0,0,1-.57-.46,1,1,0,0,1,.13-1.21,2.69,2.69,0,0,0,.33-.54.32.32,0,0,0,0-.29c-.41-.44-.83-.86-1.26-1.29-.39.25-.75.47-1.11.68a1.14,1.14,0,0,1-1.26-.53c-.1-.4-.19-.8-.29-1.24H17.42c-.08,0-.19,0-.25,0a.69.69,0,0,0-.25.26c-.09.31-.15.62-.23.94a1.06,1.06,0,0,1-1.3.54l-1-.59-1.49,1.35c.23.36.44.71.65,1.05a1.08,1.08,0,0,1-.51,1.29l-1.23.3v1.08c0,.87,0,.87.83,1.08a2.62,2.62,0,0,1,.48.13.64.64,0,0,1,.27.22,1.08,1.08,0,0,1-.07,1.43,1.83,1.83,0,0,0-.31.5.44.44,0,0,0,0,.32c.39.44.79.86,1.19,1.29.42-.26.74-.44,1.05-.66a.7.7,0,0,1,.69-.06,1,1,0,0,1,.79,1,2.27,2.27,0,0,0,.12.53c0,.1.18.24.27.24.58,0,1.17,0,1.76,0,.1-.39.19-.74.27-1.09a1,1,0,0,1,1.39-.6l1,.59L23,21.75c-.22-.37-.45-.72-.65-1.09a.53.53,0,0,1-.06-.37,1.11,1.11,0,0,1,1.11-1,1.17,1.17,0,0,0,.49-.11.41.41,0,0,0,.22-.28C24.11,18.31,24.1,17.74,24.1,17.15ZM18,20.34a2.22,2.22,0,1,1,2.19-2.2A2.23,2.23,0,0,1,18,20.34Z"/></g></g></svg>