<svg xmlns="http://www.w3.org/2000/svg" viewBox="0 0 35 35"><defs><style>.cls-1{fill:none;}.cls-2{fill:#283e90;}</style></defs><g id="Layer_2" data-name="Layer 2"><g id="Layer_1-2" data-name="Layer 1"><rect class="cls-1" width="35" height="35"/><path class="cls-2" d="M19.29,17.82a2.21,2.21,0,0,1-4.41,0,2.21,2.21,0,1,1,4.41,0Z"/><path class="cls-2" d="M29.67,13.38,17.4,7a.58.58,0,0,0-.61,0Q10.63,10.19,4.45,13.4a.46.46,0,0,0-.29.47q0,7.24,0,14.49c0,.11,0,.22,0,.34H30v-.35q0-7.23,0-14.46A.5.5,0,0,0,29.67,13.38ZM23.2,18.56a.41.41,0,0,1-.22.28,1.21,1.21,0,0,1-.49.11,1.13,1.13,0,0,0-1.12,1,.63.63,0,0,0,.07.38c.2.37.43.72.65,1.08l-1.39,1.4-1-.6a1,1,0,0,0-1.39.61c-.08.35-.17.7-.27,1.09-.59,0-1.18,0-1.76,0-.1,0-.22-.14-.27-.24a1.94,1.94,0,0,1-.12-.53,1,1,0,0,0-.79-1,.7.7,0,0,0-.69.06c-.31.21-.64.4-1.06.66-.39-.43-.79-.85-1.18-1.3a.33.33,0,0,1,0-.31,1.8,1.8,0,0,1,.3-.5,1.06,1.06,0,0,0,.07-1.43.64.64,0,0,0-.26-.23,4.27,4.27,0,0,0-.48-.13c-.83-.2-.83-.2-.83-1.07V16.83l1.22-.3a1.07,1.07,0,0,0,.52-1.29c-.21-.35-.43-.69-.65-1.05l1.49-1.36,1,.6a1.05,1.05,0,0,0,1.3-.55c.08-.31.14-.63.23-.93a.65.65,0,0,1,.25-.27c.06,0,.16,0,.25,0h1.52c.11.43.2.84.3,1.24a1.14,1.14,0,0,0,1.26.53c.36-.21.71-.44,1.11-.68.42.43.85.85,1.26,1.28a.35.35,0,0,1,0,.3,2.62,2.62,0,0,1-.33.53,1,1,0,0,0-.13,1.21.74.74,0,0,0,.57.47c.36.06.72.17,1.11.27C23.21,17.42,23.22,18,23.2,18.56Z"/><path class="cls-2" d="M33.21,13.36c0-.65,0-1.23,0-1.81a.46.46,0,0,0-.28-.47L17.36,2.29a.47.47,0,0,0-.55,0L7.63,7.47,1.21,11.1c-.11.06-.24.18-.25.28,0,.64,0,1.28,0,2a2.54,2.54,0,0,0,.34-.18L16.57,4.55a1,1,0,0,1,1.05,0l12.72,7.18Z"/><rect class="cls-2" y="30.7" width="35" height="2.1" rx="1.05"/></g></g></svg>