<svg xmlns="http://www.w3.org/2000/svg" viewBox="0 0 35 35"><defs><style>.cls-1{fill:none;}.cls-2{fill:#2c398f;}</style></defs><g id="Layer_2" data-name="Layer 2"><g id="Layer_1-2" data-name="Layer 1"><rect class="cls-1" width="35" height="35"/><path class="cls-2" d="M12.68,10.56H4.26A1.07,1.07,0,0,1,3.19,9.49V1.07A1.07,1.07,0,0,1,4.26,0h8.42a1.07,1.07,0,0,1,1.07,1.07V9.49A1.07,1.07,0,0,1,12.68,10.56ZM4.26.56a.51.51,0,0,0-.51.51V9.49a.51.51,0,0,0,.51.51h8.42a.51.51,0,0,0,.51-.51V1.07a.51.51,0,0,0-.51-.51Z"/><path class="cls-2" d="M30.74,20.56H22.32a1.07,1.07,0,0,1-1.07-1.07V11.07A1.07,1.07,0,0,1,22.32,10h8.42a1.07,1.07,0,0,1,1.07,1.07v8.42A1.07,1.07,0,0,1,30.74,20.56Zm-8.42-10a.51.51,0,0,0-.51.51v8.42a.51.51,0,0,0,.51.51h8.42a.51.51,0,0,0,.51-.51V11.07a.51.51,0,0,0-.51-.51Z"/><path class="cls-2" d="M30.74,35H22.32a1.07,1.07,0,0,1-1.07-1.07V25.51a1.07,1.07,0,0,1,1.07-1.07h8.42a1.07,1.07,0,0,1,1.07,1.07v8.42A1.07,1.07,0,0,1,30.74,35ZM22.32,25a.51.51,0,0,0-.51.51v8.42a.51.51,0,0,0,.51.51h8.42a.51.51,0,0,0,.51-.51V25.51a.51.51,0,0,0-.51-.51Z"/><polygon class="cls-2" points="21.58 30 8.19 30 8.19 10.28 8.75 10.28 8.75 29.44 21.58 29.44 21.58 30"/><rect class="cls-2" x="8.47" y="15" width="13.11" height="0.56"/></g></g></svg>