<svg xmlns="http://www.w3.org/2000/svg" viewBox="0 0 35 35"><defs><style>.cls-1,.cls-3{fill:none;}.cls-1{stroke:#2c398f;stroke-miterlimit:10;stroke-width:2px;}.cls-2{fill:#2c398f;}</style></defs><g id="Layer_2" data-name="Layer 2"><g id="Layer_1-2" data-name="Layer 1"><circle class="cls-1" cx="17.5" cy="17.5" r="16.5"/><path class="cls-2" d="M22.81,24.15a.94.94,0,0,0,.67.27.94.94,0,0,0,.67-1.61L18.84,17.5l5.31-5.31a.94.94,0,0,0,.27-.67.94.94,0,0,0-1.61-.67L17.5,16.16l-5.31-5.31a.94.94,0,0,0-.67-.27.94.94,0,0,0-.67,1.61l5.31,5.31-5.31,5.31a.94.94,0,0,0-.27.67.94.94,0,0,0,1.61.67l5.31-5.31Z"/><rect class="cls-3" width="35" height="35"/></g></g></svg>