<svg xmlns="http://www.w3.org/2000/svg" viewBox="0 0 35 35"><defs><style>.cls-1{fill:#2c398f;}.cls-2{fill:none;}</style></defs><g id="Layer_2" data-name="Layer 2"><g id="Layer_1-2" data-name="Layer 1"><path class="cls-1" d="M17.5,0A17.5,17.5,0,1,0,35,17.5,17.49,17.49,0,0,0,17.5,0Zm9.33,24.94a1.33,1.33,0,0,1-.94,2.27,1.38,1.38,0,0,1-.95-.38L17.5,19.38l-7.44,7.45a1.33,1.33,0,0,1-2.27-.94,1.38,1.38,0,0,1,.38-.95l7.45-7.44L8.17,10.06a1.33,1.33,0,0,1,.94-2.27,1.38,1.38,0,0,1,1,.38l7.44,7.45,7.44-7.45a1.33,1.33,0,0,1,2.27.94,1.38,1.38,0,0,1-.38,1L19.38,17.5Z"/><rect class="cls-2" width="35" height="35"/></g></g></svg>