<svg xmlns="http://www.w3.org/2000/svg" viewBox="0 0 35 35"><defs><style>.cls-1{fill:#2c398f;}.cls-2{fill:none;}</style></defs><g id="Layer_2" data-name="Layer 2"><g id="Layer_1-2" data-name="Layer 1"><path class="cls-1" d="M17.5,0A17.5,17.5,0,1,0,35,17.5,17.49,17.49,0,0,0,17.5,0Zm7.05,23.13a1,1,0,0,1,0,1.42,1,1,0,0,1-.71.29,1,1,0,0,1-.71-.29L17.5,18.92l-5.63,5.63a1,1,0,0,1-1.42,0,1,1,0,0,1-.29-.71,1,1,0,0,1,.29-.71l5.63-5.63-5.63-5.63a1,1,0,0,1,0-1.42,1,1,0,0,1,.71-.29,1,1,0,0,1,.71.29l5.63,5.63,5.63-5.63a1,1,0,0,1,1.42,0,1,1,0,0,1,.29.71,1,1,0,0,1-.29.71L18.92,17.5Z"/><rect class="cls-2" width="35" height="35"/></g></g></svg>