<svg xmlns="http://www.w3.org/2000/svg" viewBox="0 0 35 35"><defs><style>.cls-1{fill:#2c398f;}.cls-2{fill:none;}</style></defs><g id="Layer_2" data-name="Layer 2"><g id="Layer_1-2" data-name="Layer 1"><path class="cls-1" d="M30.67,34A2.35,2.35,0,0,0,34,34a2.35,2.35,0,0,0,0-3.33L20.83,17.5,34,4.33A2.35,2.35,0,0,0,34,1a2.35,2.35,0,0,0-3.33,0L17.5,14.17,4.33,1A2.35,2.35,0,0,0,1,1,2.35,2.35,0,0,0,1,4.33L14.17,17.5,1,30.67A2.35,2.35,0,0,0,1,34a2.35,2.35,0,0,0,3.33,0L17.5,20.83Z"/><rect class="cls-2" width="35" height="35"/></g></g></svg>