<svg xmlns="http://www.w3.org/2000/svg" viewBox="0 0 35 35"><defs><style>.cls-1,.cls-3{fill:none;}.cls-1{stroke:#2c398f;stroke-miterlimit:10;stroke-width:2px;}.cls-2{fill:#2c398f;}</style></defs><g id="Layer_2" data-name="Layer 2"><g id="Layer_1-2" data-name="Layer 1"><circle class="cls-1" cx="17.5" cy="17.5" r="16.5"/><path class="cls-2" d="M24.52,26.29a1.23,1.23,0,0,0,.89.37,1.21,1.21,0,0,0,.88-.37,1.25,1.25,0,0,0,0-1.77l-7-7,7-7a1.23,1.23,0,0,0,.37-.89,1.21,1.21,0,0,0-.37-.88,1.25,1.25,0,0,0-1.77,0l-7,7-7-7a1.23,1.23,0,0,0-.89-.37,1.21,1.21,0,0,0-.88.37,1.25,1.25,0,0,0,0,1.77l7,7-7,7a1.23,1.23,0,0,0-.37.89,1.21,1.21,0,0,0,.37.88,1.25,1.25,0,0,0,1.77,0l7-7Z"/><rect class="cls-3" width="35" height="35"/></g></g></svg>