<svg xmlns="http://www.w3.org/2000/svg" viewBox="0 0 35 35"><defs><style>.cls-1{fill:none;}.cls-2{fill:#293c8f;}</style></defs><g id="Layer_2" data-name="Layer 2"><g id="Layer_1-2" data-name="Layer 1"><rect class="cls-1" width="35" height="35"/><path class="cls-2" d="M24.43.61C24.35.13,24-.22,23.54.16s-.17.93-.18,1.35c0,.72,0,1.43,0,2.15,0,1.68.29,3.7-.88,5.07-.13.13-.49.48-.92.84a1.48,1.48,0,0,0-1.13-.51A1.53,1.53,0,1,0,22,10.59v-.16a4.88,4.88,0,0,0,2.33-2.84C24.84,5.41,24.42,2.84,24.43.61Zm-4.77,10H20A.38.38,0,0,1,19.66,10.59Z"/><path class="cls-2" d="M12.77,34.32,7.31,32c-.1-.09-2.39-2.18-1.36-4.19L7.87,20.3l2.07-7.71,4.78-3.54L15.5,9l.09.8L15,9.83l-4.38,3.24-2,7.43-2,7.6C6,29.44,7.51,31,7.8,31.32l4.68,2,.09-.13.66.45Z"/><path class="cls-2" d="M29.32,17.56l0-2.41a5.3,5.3,0,0,0-1.46-3.06c-.74-.94-1.43-1.93-2.25-2.81a3.71,3.71,0,0,0-2.05-1.23H17.17s-1.45,0-2.93,2.4l-2,2.49a5.9,5.9,0,0,0-.72,1.45V32.14A2.57,2.57,0,0,0,14,34.93c2.64.15,12.74,0,12.74,0s3-.55,2.57-3.26ZM19,17.75a1.81,1.81,0,0,1,1.71-1.64,1.77,1.77,0,0,1,1.81,1.26H21a1,1,0,0,0-1.08,1.08V19.5A1.76,1.76,0,0,1,19,17.75Zm-2,.49a.86.86,0,0,1,1,0,.91.91,0,0,1,.4.93,6.71,6.71,0,0,0-1.79,0A.91.91,0,0,1,17,18.24Zm0,1.57a5.28,5.28,0,0,1,5.72,5H12.21A5.27,5.27,0,0,1,17.06,19.81Zm10,1.31a2.44,2.44,0,0,1-.7.4.65.65,0,0,0-.43.48,4.48,4.48,0,0,1-.22.71,1.7,1.7,0,0,1-1.11,1.09v2.89H26a.35.35,0,1,1,0,.69H22.45a.36.36,0,0,1-.33-.18,2.32,2.32,0,0,1-.38.05H13.17a1.48,1.48,0,0,1-1.42-1.15.76.76,0,0,0,0-.11v-.32a.46.46,0,0,1,.46-.24H22.81a.44.44,0,0,1,.46.24V26a2.19,2.19,0,0,1-.1.34,1.55,1.55,0,0,1-.21.38h.93V23.8l-.14-.05a1.7,1.7,0,0,1-.95-1,4.32,4.32,0,0,1-.23-.72.71.71,0,0,0-.48-.55,2.15,2.15,0,0,1-1.15-1l-.05-.1h6.7A2.15,2.15,0,0,1,27.05,21.12Zm2-4.32a.34.34,0,0,1-.46.21L27,16.48l-.11,0c-.17.53-.35,1.06-.52,1.6h1.12a.36.36,0,0,1,.4.41c0,.38,0,.77,0,1.15a.51.51,0,0,0,0,.13h-2l.55-1.7H25.6s0,.06,0,.09c-.16.5-.32,1-.49,1.51,0,.06,0,.09-.12.09H20.65l0-.25V18.43a.35.35,0,0,1,.38-.38h4.6c.12-.34.24-.68.35-1s.22-.67.32-1a.54.54,0,0,1,.27-.35h.19l1.17.39c.31.1.61.19.91.3A.34.34,0,0,1,29.06,16.8Z"/></g></g></svg>