<svg xmlns="http://www.w3.org/2000/svg" viewBox="0 0 35 35"><defs><style>.cls-1{fill:none;}.cls-2{fill:#293c8f;}</style></defs><g id="Layer_2" data-name="Layer 2"><g id="Layer_1-2" data-name="Layer 1"><rect class="cls-1" width="35" height="35"/><path class="cls-2" d="M14.41,35a1.34,1.34,0,0,0-.18-.07,3.37,3.37,0,0,1-2-1.22,1.79,1.79,0,0,0-.75-.56L5.94,30.68a3.39,3.39,0,0,1-1.87-4.57c1.08-2.71,2.17-5.4,3.25-8.1A.72.72,0,0,1,8,17.5c.41-.07.33-.54.49-.82.05-.09.06-.31,0-.37a.61.61,0,0,1-.13-.75q1-2.52,2-5A2.57,2.57,0,0,1,11.61,9.1c1.75-.86,3.51-1.73,5.28-2.56A2.51,2.51,0,0,1,18,6.3c2.26,0,4.51,0,6.77,0H25V.79a1.27,1.27,0,0,1,0-.34A.48.48,0,0,1,25.56,0a.49.49,0,0,1,.52.48,3.35,3.35,0,0,1,0,.55V6.56a.41.41,0,0,0,.08.24c.71.82,1.43,1.62,2.13,2.44s1.42,1.73,2.14,2.58A3.21,3.21,0,0,1,31.22,14c0,3.92,0,7.84,0,11.76a.86.86,0,0,1-.07.46.78.78,0,0,1-.5.31c-.15,0-.35-.18-.45-.33a1,1,0,0,1-.06-.5q0-5.88,0-11.75a2,2,0,0,0-.48-1.38c-1.24-1.49-2.46-3-3.7-4.48a.92.92,0,0,0-.11-.14c-.05.1-.1.17-.13.24a5,5,0,0,1-2.52,2.58.67.67,0,0,0-.3.32,1.64,1.64,0,1,1-2.31-1.9,1.63,1.63,0,0,1,2,.42l.14.17a3.85,3.85,0,0,0,2.13-2.41l-.41,0H18.15a1.85,1.85,0,0,0-1.5.69c-1.26,1.53-2.53,3-3.77,4.59a1.73,1.73,0,0,0-.35,1q0,9,0,17.91A2.46,2.46,0,0,0,15,34H27.59a2.54,2.54,0,0,0,2.54-2.54c0-1,0-1.92,0-2.87,0-.44.22-.69.56-.65a.48.48,0,0,1,.5.47,24.19,24.19,0,0,1-.12,3.81,3.34,3.34,0,0,1-2.78,2.76.61.61,0,0,0-.14.07ZM21.9,10.62a.59.59,0,0,0-.57-.57.58.58,0,0,0,0,1.16A.59.59,0,0,0,21.9,10.62Z"/><path class="cls-2" d="M28.24,16.07H28S28,16,28,16c.18-.57.36-1.13.53-1.7a.33.33,0,0,0-.23-.46l-.42-.14a.34.34,0,0,0-.48.26c-.1.3-.19.61-.29.91s-.25.8-.38,1.2h-1.1A1.81,1.81,0,0,0,25,14.83a1.76,1.76,0,0,0-1.36-.41A1.85,1.85,0,0,0,21.94,16a1.72,1.72,0,0,0,.22,1.13,1.85,1.85,0,0,0,1.42.94v4.06a5.22,5.22,0,0,1,.39.43v-.07c0-.19,0-.38,0-.58,0-.74,0-1.47,0-2.21v-.15h1.64c-.11.34-.22.67-.32,1a.34.34,0,0,0,.26.5c.13,0,.26.09.39.12a.34.34,0,0,0,.48-.24c.13-.43.26-.85.4-1.28a.12.12,0,0,1,.14-.11h1.35v2.08c0,.15.07.23.2.23s.19-.08.19-.23V16.52A.44.44,0,0,0,28.24,16.07Zm-.47-2,.36.12c-.19.62-.39,1.24-.58,1.85h-.41C27.35,15.4,27.55,14.75,27.77,14.09Zm-4.2,3.6a1.42,1.42,0,0,1-1.25-1.4,1.45,1.45,0,0,1,2.89-.22h-.37a1.08,1.08,0,1,0-1.27,1.25Zm.14-1.49c-.2.2-.1.46-.14.69a.64.64,0,0,1-.46-.65.67.67,0,0,1,.62-.64.65.65,0,0,1,.67.46C24.16,16.09,23.91,16,23.71,16.2Zm.4,3H24V18.8h.29c.31,0,.4-.05.4-.2s-.1-.2-.4-.2H24s0-.06,0-.1c0-.56,0-1.13,0-1.69,0-.11,0-.15.14-.15h2.48c-.06.21-.13.41-.19.61-.13.41-.26.81-.38,1.22,0,.08-.06.11-.16.11h-.44c-.14,0-.23.09-.23.21s.09.19.24.19h.43c0,.12-.07.23-.11.34a.12.12,0,0,1-.07.05ZM26,20.83l-.37-.12L26,19.59h.4Zm.53-1.69s0,.05-.07.05h-.35c0-.11.07-.23.11-.33a.12.12,0,0,1,.08-.06c.11,0,.22,0,.34,0C26.64,18.92,26.61,19,26.57,19.14Zm.24-.74h-.4l0-.14c.18-.56.36-1.11.53-1.67,0-.1.08-.14.18-.13h.27Zm1.5.78H27l.12-.37h1.21Zm-1.08-.78c.2-.65.4-1.29.61-1.94a2.29,2.29,0,0,1,.37,0,.12.12,0,0,1,.09.1c0,.6,0,1.21,0,1.83Zm-1.62,7.25-.06-.44a1.37,1.37,0,0,1-.32.87h.48a1.33,1.33,0,0,0,.17-.43Zm-.12-.76c0-.17-.07-.32-.12-.48a1.87,1.87,0,0,1-.49-.2,4.91,4.91,0,0,1,.15.51,2.26,2.26,0,0,0,.31.1A.26.26,0,0,1,25.49,24.89Zm3-2.46a.19.19,0,0,0-.16.22A1.85,1.85,0,0,1,27.7,24a2,2,0,0,1-.92.46.52.52,0,0,0-.43.48,1.78,1.78,0,0,0,.54,1.56l.28.23H25.55a.86.86,0,0,1-.45.15h-.55a.32.32,0,0,0,.15.22l.06,0h2.76a.35.35,0,0,0,0-.66l-.1-.07a1.42,1.42,0,0,1-.7-1.33c0-.15.06-.22.2-.25a2.24,2.24,0,0,0,1.24-.74,2.17,2.17,0,0,0,.53-1.44A.19.19,0,0,0,28.47,22.43Z"/><path class="cls-2" d="M26.12,25.65h-.51l-.06-.44-.06-.32c0-.17-.07-.32-.12-.48A5.43,5.43,0,0,0,24,22c-.13-.12-.26-.24-.4-.35a6.59,6.59,0,0,0-2.72-1.26,1.08,1.08,0,0,0-.13-.7.75.75,0,0,0-.63-.34.87.87,0,0,0-.64.19,1,1,0,0,0-.25.88,5.54,5.54,0,0,0-3.3,1.79,5.48,5.48,0,0,0-1.42,3.49H13.9a.2.2,0,0,0-.21.21,1.53,1.53,0,0,0,0,.37,1.33,1.33,0,0,0,1.38,1.07H25a1.53,1.53,0,0,0,.72-.17,1.24,1.24,0,0,0,.44-.41,1.4,1.4,0,0,0,.24-.8C26.39,25.72,26.32,25.65,26.12,25.65Zm-6.35-5.86a.52.52,0,0,1,.5,0c.15.09.19.24.15.55h-.78C19.63,20.13,19.59,19.93,19.77,19.79Zm-.24,1a5.06,5.06,0,0,1,4,1.4,5.22,5.22,0,0,1,.39.43,5.15,5.15,0,0,1,.91,1.61,4.91,4.91,0,0,1,.15.51,4.06,4.06,0,0,1,.11.92H14.94A5.08,5.08,0,0,1,19.53,20.77Zm5.57,6.1h-10a1,1,0,0,1-.73-.26.88.88,0,0,1-.25-.53H25.94a.66.66,0,0,1,0,.14.88.88,0,0,1-.38.5A.86.86,0,0,1,25.1,26.87Z"/></g></g></svg>