<svg xmlns="http://www.w3.org/2000/svg" viewBox="0 0 35 35"><defs><style>.cls-1,.cls-3{fill:none;}.cls-1{stroke:#2c398f;stroke-miterlimit:10;stroke-width:2px;}.cls-2{fill:#2c398f;}</style></defs><g id="Layer_2" data-name="Layer 2"><g id="Layer_1-2" data-name="Layer 1"><circle class="cls-1" cx="17.5" cy="17.5" r="16.5"/><path class="cls-2" d="M14.47,20.56c1.11-1.12,2.14-2.16,3.18-3.19q3.11-3.12,6.22-6.22a1.64,1.64,0,0,1,2.58.09,1.62,1.62,0,0,1,0,1.92,2,2,0,0,1-.23.27L15.77,23.86a1.58,1.58,0,0,1-1.5.54A1.9,1.9,0,0,1,13.4,24c-1.59-1.55-3.15-3.12-4.71-4.71a1.49,1.49,0,0,1-.31-1.69,1.55,1.55,0,0,1,1.39-1,1.71,1.71,0,0,1,1.37.58l3,3C14.27,20.28,14.35,20.41,14.47,20.56Z"/><rect class="cls-3" width="35" height="35"/></g></g></svg>