<svg xmlns="http://www.w3.org/2000/svg" viewBox="0 0 35 35"><defs><style>.cls-1{fill:none;}.cls-2{fill:#2c398f;}</style></defs><g id="Layer_2" data-name="Layer 2"><g id="Layer_1-2" data-name="Layer 1"><rect class="cls-1" width="35" height="35"/><path class="cls-2" d="M17.5,0A17.5,17.5,0,1,0,35,17.5,17.49,17.49,0,0,0,17.5,0ZM27,12.9a2.2,2.2,0,0,1-.24.28L15.66,24.24a1.67,1.67,0,0,1-1.58.58,1.92,1.92,0,0,1-.93-.44c-1.68-1.64-3.34-3.31-5-5a1.57,1.57,0,0,1-.33-1.79A1.62,1.62,0,0,1,9.3,16.52a1.79,1.79,0,0,1,1.46.61L14,20.34c.1.11.19.24.31.4l3.38-3.38,6.6-6.6a1.73,1.73,0,0,1,2.73.1A1.71,1.71,0,0,1,27,12.9Z"/></g></g></svg>