<svg xmlns="http://www.w3.org/2000/svg" viewBox="0 0 35 35"><defs><style>.cls-1{fill:none;}.cls-2{fill:#2e388d;}.cls-3{fill:#fff;}.cls-4{fill:#2c398f;}</style></defs><g id="Layer_2" data-name="Layer 2"><g id="Layer_1-2" data-name="Layer 1"><rect class="cls-1" width="35" height="35"/><path class="cls-2" d="M24,26.69a17.87,17.87,0,0,1-6.16,1.48c-9.13.54-14.7-7.49-15.9-9.43a22.61,22.61,0,0,1,8.7-7.92L9.44,9.45A24.86,24.86,0,0,0,.11,18.31a.87.87,0,0,0,0,.83c.25.45,6,10.8,16.77,10.8.34,0,.68,0,1,0a19.7,19.7,0,0,0,7.23-1.82Zm11-8.27C34.79,18,31.2,9,19.11,7.66A16.65,16.65,0,0,0,10.86,8.8l.86,1,.18.21.14.16a15,15,0,0,1,6.87-.82,21,21,0,0,1,4.59,1,16.53,16.53,0,0,1,9.65,8.26A22,22,0,0,1,25.33,26l1.17,1.38a22.78,22.78,0,0,0,8.39-8.25A.83.83,0,0,0,34.94,18.42Z"/><path class="cls-2" d="M13.56,14.35l8.26,9.82a8.66,8.66,0,0,1-11-13.05l1.4,1.67Z"/><path class="cls-2" d="M26.17,16.65a8.68,8.68,0,0,1-3.11,6.65l-8.39-10-1.34-1.6L12,10.21l-.14-.16a8.67,8.67,0,0,1,14.27,6.6Z"/><path class="cls-3" d="M12.24,12.79l1.32,1.56a4.35,4.35,0,0,0-.66,1.2c-.11.28-.21.69-.33,1.07-.29.9-1.17,1.64-1.86.46-.47-.8.28-2.65.76-3.32A9.92,9.92,0,0,1,12.24,12.79Z"/><path class="cls-3" d="M16.61,12.6a5.36,5.36,0,0,0-1.94.74l-1.34-1.6A5.23,5.23,0,0,1,14.5,11a2.54,2.54,0,0,1,2.49,0C17.7,11.6,17.75,12.4,16.61,12.6Z"/><rect class="cls-4" x="17.94" y="-0.08" width="1.5" height="35.15" rx="0.67" transform="translate(44.27 18.85) rotate(139.92)"/></g></g></svg>