<svg xmlns="http://www.w3.org/2000/svg" viewBox="0 0 35 35"><defs><style>.cls-1{fill:#2e388d;}.cls-2{fill:#fff;}.cls-3{fill:none;}</style></defs><g id="Layer_2" data-name="Layer 2"><g id="Layer_1-2" data-name="Layer 1"><path class="cls-1" d="M16.87,28.68C6.07,28.68.37,18.35.13,17.9a.89.89,0,0,1,0-.84c.07-.12,6.87-12,19-10.63S34.77,16.79,34.92,17.18a.87.87,0,0,1-.05.72c-.22.41-5.58,10.07-17,10.75Q17.38,28.68,16.87,28.68ZM1.91,17.5c1.2,1.94,6.77,10,15.88,9.41s14.28-7.79,15.34-9.48c-.78-1.66-4.44-8.17-14.22-9.27S3.18,15.5,1.91,17.5Z"/><circle class="cls-1" cx="17.5" cy="15.42" r="8.65"/><path class="cls-2" d="M12.58,15.37c.12-.37.22-.77.33-1.06a4.62,4.62,0,0,1,3.7-2.94c1.14-.2,1.09-1,.38-1.54a2.56,2.56,0,0,0-2.49,0,7.81,7.81,0,0,0-3,2.74c-.47.67-1.23,2.51-.76,3.31C11.41,17,12.29,16.28,12.58,15.37Z"/><rect class="cls-3" width="35" height="35"/></g></g></svg>