<svg xmlns="http://www.w3.org/2000/svg" viewBox="0 0 25.87 20.5"><defs><style>.cls-1{fill:#2a3b8e;}</style></defs><g id="Layer_2" data-name="Layer 2"><g id="Layer_1-2" data-name="Layer 1"><path class="cls-1" d="M0,17a1,1,0,0,1,1-.54q11.91,0,23.81,0a1,1,0,0,1,1,.54v.66c-.07.26-.13.52-.22.77a3.32,3.32,0,0,1-3.21,2.1H3.25A3.3,3.3,0,0,1,.08,17.94,2.58,2.58,0,0,0,0,17.68Z"/><path class="cls-1" d="M14.94,2.44a15,15,0,0,0-4,0,2,2,0,0,1,.92-2.1A1.91,1.91,0,0,1,14,.35,2,2,0,0,1,14.94,2.44Z"/><path class="cls-1" d="M22,9.3l-1.53,1.57L20.4,11a1.72,1.72,0,0,0-.17-.19L16.39,6.89A2.67,2.67,0,0,1,15.59,5a2.55,2.55,0,0,1,.17-.81A11.87,11.87,0,0,0,1.12,14.93H24.77a11.52,11.52,0,0,0-2.19-6.17Z"/><path class="cls-1" d="M20.4,10.26a1.33,1.33,0,0,1,.1-.11c.44-.46.89-.92,1.34-1.37.69-.71,1.39-1.41,2.07-2.12a2.3,2.3,0,0,0-.37-3.58A2,2,0,0,0,22,2.71a2.39,2.39,0,0,0-1.25.69.45.45,0,0,1-.63,0,2.2,2.2,0,0,0-1.91-.69,2.47,2.47,0,0,0-2,2.25,2.38,2.38,0,0,0,.7,1.69l3.36,3.43Z"/></g></g></svg>