<svg xmlns="http://www.w3.org/2000/svg" viewBox="0 0 35 35"><defs><style>.cls-1{fill:none;}.cls-2{fill:#283e90;}</style></defs><g id="Layer_2" data-name="Layer 2"><g id="Layer_1-2" data-name="Layer 1"><rect class="cls-1" width="35" height="35"/><path class="cls-2" d="M34.24,20.7H32.86a29.33,29.33,0,0,0-.6-3.3,18.7,18.7,0,0,0-1.33-3.32,5,5,0,0,1-.81.78,16.11,16.11,0,0,1,1.51,5.8H3.38a13.66,13.66,0,0,1,6-10.87c4.29-2.95,8.82-3.51,13.33-1.63a5.73,5.73,0,0,1,.75-.94,18.81,18.81,0,0,0-3.36-1,.31.31,0,0,1-.29-.36,5.52,5.52,0,0,0-.09-1.15A2.22,2.22,0,0,0,17,3.21,2.09,2.09,0,0,0,15.23,5.3c0,.28,0,.55,0,.77C7.42,7.88,3.07,12.7,2.14,20.7H.63a.56.56,0,0,0-.63.6,3.71,3.71,0,0,0,3.93,3.94h23c1.43,0,2.87,0,4.3,0A3.67,3.67,0,0,0,35,21.46C35,20.89,34.81,20.7,34.24,20.7ZM31.74,24c-.23,0-.46,0-.68,0H3.93a2.59,2.59,0,0,1-2.72-2c0-.06,0-.12,0-.21H33.77A2.39,2.39,0,0,1,31.74,24Z"/><path class="cls-2" d="M27.49,14.81a4.34,4.34,0,0,1-4.33-4.33,4.29,4.29,0,0,1,.64-2.26,4.44,4.44,0,0,1,.63-.8,4.33,4.33,0,0,1,7.39,3.06,4.38,4.38,0,0,1-1,2.77,4,4,0,0,1-.7.66A4.31,4.31,0,0,1,27.49,14.81Zm0-7.85A3.53,3.53,0,0,0,25,8a4.12,4.12,0,0,0-.52.65A3.59,3.59,0,0,0,24,10.48,3.53,3.53,0,0,0,27.49,14a3.46,3.46,0,0,0,2.14-.73,3.25,3.25,0,0,0,.57-.54A3.52,3.52,0,0,0,27.49,7Z"/><path class="cls-2" d="M27.49,13.56l.07-.08.92-.94c.48-.49,1-1,1.43-1.46A1.59,1.59,0,0,0,30.39,10a1.61,1.61,0,0,0-.73-1.39,1.37,1.37,0,0,0-1.09-.25,1.59,1.59,0,0,0-.86.47.3.3,0,0,1-.43,0A1.51,1.51,0,0,0,26,8.36a1.69,1.69,0,0,0-1.37,1.55,1.63,1.63,0,0,0,.48,1.17l2.32,2.37Z"/></g></g></svg>