<svg xmlns="http://www.w3.org/2000/svg" viewBox="0 0 35 35"><defs><style>.cls-1{fill:none;}.cls-2{fill:#273f90;}</style></defs><g id="Layer_2" data-name="Layer 2"><g id="Layer_1-2" data-name="Layer 1"><rect class="cls-1" width="35" height="35"/><path class="cls-2" d="M0,26.6a1.39,1.39,0,0,1,1.4-.74H33.74c.47,0,.93.07,1.12.53A2.13,2.13,0,0,1,35,27.46a4.45,4.45,0,0,1-4.43,3.91H4.67A4.49,4.49,0,0,1,.31,28.55c-.12-.32-.21-.66-.31-1Z"/><path class="cls-2" d="M33.52,23.83h-32a16.06,16.06,0,0,1,23-13.44,5,5,0,0,0-.51.7,5.77,5.77,0,0,0-.86,3.05,5.82,5.82,0,0,0,9.27,4.71A15.55,15.55,0,0,1,33.52,23.83Z"/><path class="cls-2" d="M20.22,6.93a19.75,19.75,0,0,0-5.43,0A2.75,2.75,0,0,1,16,4.11a2.59,2.59,0,0,1,3,0A2.77,2.77,0,0,1,20.22,6.93Z"/><path class="cls-2" d="M29,9.44a4.73,4.73,0,1,0,4.72,4.72A4.73,4.73,0,0,0,29,9.44Zm2.69,4.87-1.58,1.62-1,1a.58.58,0,0,1-.08.1.81.81,0,0,0-.11-.13c-.86-.87-1.71-1.75-2.57-2.63A1.79,1.79,0,0,1,25.8,13a1.88,1.88,0,0,1,1.51-1.73,1.71,1.71,0,0,1,1.46.53.34.34,0,0,0,.48,0,1.87,1.87,0,0,1,1-.53,1.54,1.54,0,0,1,1.2.28,1.75,1.75,0,0,1,.81,1.54A1.7,1.7,0,0,1,31.7,14.31Z"/></g></g></svg>