<svg xmlns="http://www.w3.org/2000/svg" viewBox="0 0 35 35"><defs><style>.cls-1{fill:none;}.cls-2{fill:#2e388d;}.cls-3{fill:#fff;}</style></defs><g id="Layer_2" data-name="Layer 2"><g id="Layer_1-2" data-name="Layer 1"><path class="cls-1" d="M0,0V35H35V0ZM25.22,31V29.88"/><rect class="cls-2" y="27.15" width="35" height="4.4" rx="1.63"/><path class="cls-2" d="M35,22.92a2.22,2.22,0,0,1-2.2,2.2H2.2a2.2,2.2,0,0,1,0-4.4H3a10.37,10.37,0,0,1-.06-1.12c0-5.13,4.22-9.49,10.09-11A4,4,0,0,1,13,8a4.52,4.52,0,0,1,9,0,3.91,3.91,0,0,1,0,.49c6.09,1.44,10.53,5.89,10.53,11.15a10.36,10.36,0,0,1-.07,1.12h.35A2.21,2.21,0,0,1,35,22.92Z"/><path class="cls-3" d="M9.27,13.38A4.4,4.4,0,0,1,13,10.67Z"/></g></g></svg>