<svg xmlns="http://www.w3.org/2000/svg" viewBox="0 0 35 35"><defs><style>.cls-1{fill:none;}.cls-2{fill:#2e388d;}</style></defs><g id="Layer_2" data-name="Layer 2"><g id="Layer_1-2" data-name="Layer 1"><path class="cls-1" d="M0,0V35H35V0ZM25.22,31V29.88"/><path class="cls-2" d="M33,31.58H2A1.94,1.94,0,0,1,.05,29.64V28.53a1.94,1.94,0,0,1,2-1.94H33a1.94,1.94,0,0,1,2,1.94v1.11A1.94,1.94,0,0,1,33,31.58ZM2,27.28A1.25,1.25,0,0,0,.75,28.53v1.11A1.25,1.25,0,0,0,2,30.89H33a1.26,1.26,0,0,0,1.26-1.25V28.53A1.26,1.26,0,0,0,33,27.28Z"/><path class="cls-2" d="M32.45,25.3H2.55a2.5,2.5,0,1,1,0-5H3q0-.36,0-.75c0-5,3.94-9.38,9.83-11,0-.11,0-.22,0-.33a4.76,4.76,0,0,1,9.52,0,1.48,1.48,0,0,1,0,.21c6.07,1.54,10.27,6.1,10.27,11.16q0,.38,0,.75a2.5,2.5,0,0,1,0,5ZM2.55,21A1.83,1.83,0,0,0,.74,22.8a1.81,1.81,0,0,0,1.81,1.8h29.9a1.83,1.83,0,0,0,1.28-.53,1.78,1.78,0,0,0,.52-1.27A1.8,1.8,0,0,0,32.45,21h-.73l0-.39a7.22,7.22,0,0,0,.07-1.05c0-4.82-4.12-9.16-10-10.55l-.3-.08,0-.3a3.25,3.25,0,0,0,0-.44,4.07,4.07,0,0,0-8.14,0,4.9,4.9,0,0,0,0,.54l0,.3-.29.08c-5.75,1.51-9.61,5.71-9.61,10.45a7.12,7.12,0,0,0,.07,1.05l0,.39Z"/><path class="cls-2" d="M9.45,13.47a4.33,4.33,0,0,1,3.64-2.64Z"/></g></g></svg>