<svg xmlns="http://www.w3.org/2000/svg" viewBox="0 0 35.3 35.3"><defs><style>.cls-1{fill:#2c398f;}.cls-2,.cls-3{fill:none;}.cls-2{stroke:#2c398f;stroke-miterlimit:10;stroke-width:2px;}</style></defs><g id="Layer_2" data-name="Layer 2"><g id="Layer_1-2" data-name="Layer 1"><circle class="cls-1" cx="18.18" cy="11.83" r="1.99"/><path class="cls-1" d="M20.58,23.36h-.82V15.63a.28.28,0,0,0-.1-.21.61.61,0,0,0-.52-.28H14.69a.62.62,0,0,0-.62.62v.87a.62.62,0,0,0,.62.62h2.75v6.11H15.56a.65.65,0,0,0-.65.65v.81a.65.65,0,0,0,.65.65h5a.65.65,0,0,0,.65-.65V24A.65.65,0,0,0,20.58,23.36Z"/><circle class="cls-2" cx="17.65" cy="17.65" r="16.65"/><rect class="cls-3" x="0.15" y="0.15" width="35" height="35"/></g></g></svg>