<svg xmlns="http://www.w3.org/2000/svg" viewBox="0 0 35 35"><defs><style>.cls-1{fill:none;}.cls-2{fill:#2e388d;}</style></defs><g id="Layer_2" data-name="Layer 2"><g id="Layer_1-2" data-name="Layer 1"><rect class="cls-1" width="35" height="35"/><path class="cls-2" d="M28.4,29.78l-5-5,1.36-1.36,3.66,3.66L30,25.5V.84H0V34.16H30V28.23ZM3.25,5.35H26.71v6.32H3.25Zm0,10.22H26.71V17.5H3.25Zm0,4.52H21.87V22H3.25Zm0,4.84H21.87v1.92H3.25Zm23.46,6.76H3.25V29.77H26.71Z"/><polygon class="cls-2" points="34.36 21.92 28.38 27.91 24.53 24.06 23.94 24.65 27.73 28.55 27.73 28.55 28.37 29.19 35 22.56 34.36 21.92"/></g></g></svg>