<svg xmlns="http://www.w3.org/2000/svg" viewBox="0 0 35 35"><defs><style>.cls-1{fill:none;}.cls-2{fill:#2e388d;}</style></defs><g id="Layer_2" data-name="Layer 2"><g id="Layer_1-2" data-name="Layer 1"><path class="cls-1" d="M0,0V35H35V0ZM25.22,31V29.88"/><rect class="cls-2" x="16.17" width="2.65" height="15.33" rx="1.12"/><path class="cls-2" d="M17.5,35A17,17,0,0,1,7.35,4.3a1.24,1.24,0,0,1,1.48,2A14.54,14.54,0,1,0,32,18,14.41,14.41,0,0,0,26.17,6.3a1.24,1.24,0,0,1,1.48-2A17,17,0,0,1,17.5,35Z"/><path class="cls-2" d="M17.5,20.47a4.9,4.9,0,0,1-2.92-8.84.23.23,0,0,1,.32,0,.23.23,0,0,1-.05.32,4.5,4.5,0,0,0-1.8,3.57A4.45,4.45,0,1,0,20.15,12a.23.23,0,1,1,.28-.36,4.91,4.91,0,0,1-2.93,8.84Z"/></g></g></svg>