<svg xmlns="http://www.w3.org/2000/svg" viewBox="0 0 35 35"><defs><style>.cls-1{fill:#2c398f;}.cls-2{fill:#2a3c8f;}.cls-3{fill:none;}</style></defs><g id="Layer_2" data-name="Layer 2"><g id="Layer_1-2" data-name="Layer 1"><path class="cls-1" d="M28.81,30l-.24.86-.46-1.66a2.15,2.15,0,0,0,.14-.74V17.69a1.88,1.88,0,0,0-.13-.72,2.11,2.11,0,0,0-2-1.35H8.84a2.09,2.09,0,0,0-2.06,1.74,1.93,1.93,0,0,0,0,.33V28.45c0,.1,0,.2,0,.3l-.58.1V30a4.09,4.09,0,0,1-4.1-4.07V11.86a4.09,4.09,0,0,1,4.1-4.07H28.81a4.09,4.09,0,0,1,4.1,4.07V25.92A4.09,4.09,0,0,1,28.81,30ZM6.19,9a2.9,2.9,0,0,0-2.92,2.88V25.92a2.9,2.9,0,0,0,2.31,2.82c0-.1,0-.2,0-.29V17.69a3.07,3.07,0,0,1,.05-.53,3.29,3.29,0,0,1,3.23-2.73H26.16a3.29,3.29,0,0,1,3.06,2.11,3,3,0,0,1,.22,1.15V28.45c0,.09,0,.19,0,.29a2.9,2.9,0,0,0,2.31-2.82V11.86A2.9,2.9,0,0,0,28.81,9Zm21,2.5H23.78a.9.9,0,0,1-.9-.9v-.22a.91.91,0,0,1,.9-.9h3.45a.91.91,0,0,1,.91.9v.22A.9.9,0,0,1,27.23,11.48Z"/><polygon class="cls-1" points="29.23 8.39 28.04 8.39 28.04 1.19 6.96 1.19 6.96 8.39 5.78 8.39 5.78 0 29.23 0 29.23 8.39"/><polygon class="cls-1" points="29.23 35 5.78 35 5.78 17.27 6.54 17.2 6.88 33.81 28.04 33.81 28.04 16.75 29.23 16.75 29.23 35"/><path class="cls-2" d="M25.43,19.59a.62.62,0,0,1-.62.62H10.19a.63.63,0,0,1,0-1.25H24.81A.63.63,0,0,1,25.43,19.59Z"/><path class="cls-2" d="M25.43,22.79a.62.62,0,0,1-.62.62H10.19a.63.63,0,0,1,0-1.25H24.81A.63.63,0,0,1,25.43,22.79Z"/><rect class="cls-2" x="23.49" y="10.06" width="4.04" height="0.83" rx="0.24"/><rect class="cls-3" width="35" height="35"/></g></g></svg>