<svg xmlns="http://www.w3.org/2000/svg" viewBox="0 0 35 35"><defs><style>.cls-1{fill:none;}.cls-2{fill:#293c8f;}</style></defs><g id="Layer_2" data-name="Layer 2"><g id="Layer_1-2" data-name="Layer 1"><rect class="cls-1" width="35" height="35"/><path class="cls-2" d="M34.26,24h-1.4c0-.41-.11-.82-.17-1.21s-.11-.6-.17-.9-.2-.88-.31-1.3a15.14,15.14,0,0,0-3.85-6.78c-.35-.34-.71-.67-1.09-1a18.16,18.16,0,0,0-7.48-3.44,3.22,3.22,0,0,0-.37-2,2.13,2.13,0,0,0-1.75-.93A2.34,2.34,0,0,0,15.93,7a2.7,2.7,0,0,0-.69,2.42A15.38,15.38,0,0,0,2.22,24c-.57,0-1.09,0-1.61,0a.55.55,0,0,0-.6.58,4.76,4.76,0,0,0,.06,1,3.69,3.69,0,0,0,3.8,3H31.16a4,4,0,0,0,2-.49,3.43,3.43,0,0,0,1.22-1.11A3.86,3.86,0,0,0,35,24.72C35,24.16,34.81,24,34.26,24ZM16.78,7.83a1.44,1.44,0,0,1,1.38,0c.39.24.51.67.41,1.5H16.4C16.4,8.75,16.27,8.22,16.78,7.83Zm-.68,2.69a14,14,0,0,1,11.17,3.87,15,15,0,0,1,1.08,1.17A14.31,14.31,0,0,1,30.85,20a12.26,12.26,0,0,1,.4,1.4,12.8,12.8,0,0,1,.33,2.52H3.46A14,14,0,0,1,16.1,10.52ZM31.45,27.33H29.93q-13,0-26,0a2.71,2.71,0,0,1-2-.73,2.45,2.45,0,0,1-.7-1.45H33.78a2.2,2.2,0,0,1-.05.37,2.36,2.36,0,0,1-1,1.4A2.47,2.47,0,0,1,31.45,27.33Z"/></g></g></svg>