<svg xmlns="http://www.w3.org/2000/svg" viewBox="0 0 35 35"><defs><style>.cls-1{fill:none;}.cls-2{fill:#2a3b8f;}</style></defs><g id="Layer_2" data-name="Layer 2"><g id="Layer_1-2" data-name="Layer 1"><rect class="cls-1" width="35" height="35"/><path class="cls-2" d="M0,25.84a1.38,1.38,0,0,1,1.4-.73q16.1,0,32.2,0a1.38,1.38,0,0,1,1.4.73v.89c-.1.35-.17.71-.3,1a4.47,4.47,0,0,1-4.34,2.84H4.4A4.46,4.46,0,0,1,.11,27.15C.08,27,0,26.92,0,26.8Z"/><path class="cls-2" d="M33.51,23.08h-32a16,16,0,0,1,32,0Z"/><path class="cls-2" d="M20.21,6.19a19.68,19.68,0,0,0-5.42,0A2.73,2.73,0,0,1,16,3.34a2.57,2.57,0,0,1,2.95,0A2.76,2.76,0,0,1,20.21,6.19Z"/></g></g></svg>