<svg xmlns="http://www.w3.org/2000/svg" viewBox="0 0 35 35.05"><defs><style>.cls-1{fill:none;}.cls-2{fill:#ffffff;}</style></defs><g id="Layer_2" data-name="Layer 2"><g id="Layer_1-2" data-name="Layer 1"><path class="cls-1" d="M0,0V35H35V0ZM25.22,31V29.9"/><path class="cls-2" d="M34,35.05H25v-14H10.24v14H1V0H12.12V7.42H22.88V0h3.25L34,8.29Zm-8.07-1H33V8.67L25.71,1H23.85V8.38H11.15V1H2V34.08H9.28v-14H25.92Z"/><rect class="cls-2" x="12.39" y="23.9" width="9.75" height="0.66" rx="0.3"/><rect class="cls-2" x="12.39" y="26.93" width="9.75" height="0.66" rx="0.3"/><rect class="cls-2" x="12.39" y="29.96" width="9.75" height="0.66" rx="0.3"/><rect class="cls-2" x="10.97" y="0.03" width="13.06" height="0.97"/><rect class="cls-2" x="9.03" y="34.08" width="16.47" height="0.97"/></g></g></svg>
