<svg xmlns="http://www.w3.org/2000/svg" viewBox="0 0 35.07 35"><defs><style>.cls-1{fill:none;}.cls-2{fill:#2e388d;}</style></defs><g id="Layer_2" data-name="Layer 2"><g id="Layer_1-2" data-name="Layer 1"><path class="cls-1" d="M0,0V35H35V0ZM25.22,31V29.88"/><path class="cls-2" d="M34,15.06l-3.39-1.29a13.51,13.51,0,0,0-1.12-2.65l1.65-3.06A1.73,1.73,0,0,0,30.81,6L29.33,4.52a1.69,1.69,0,0,0-1.89-.35L24,5.72a13.57,13.57,0,0,0-2.51-1l-1-3.42A1.75,1.75,0,0,0,18.8,0H16.7a1.69,1.69,0,0,0-1.58,1.09L13.78,4.63a13.67,13.67,0,0,0-2.65,1.09L7.69,4.17a1.69,1.69,0,0,0-1.89.35L4.32,6A1.74,1.74,0,0,0,4,8.06l1.65,3.06a13.48,13.48,0,0,0-1.11,2.65l-3.4,1.29A1.67,1.67,0,0,0,.07,16.64v2.09A1.74,1.74,0,0,0,1.31,20.4l3.18,1a13.1,13.1,0,0,0,1.17,2.87L4.24,27.37a1.68,1.68,0,0,0,.34,1.89l1.48,1.49a1.77,1.77,0,0,0,2.07.3l2.8-1.52a13.64,13.64,0,0,0,3,1.24l1.19,3.14A1.69,1.69,0,0,0,16.7,35h2.1a1.75,1.75,0,0,0,1.67-1.25l.91-3a13.26,13.26,0,0,0,2.82-1.19L27,31.05a1.76,1.76,0,0,0,2.06-.3l1.48-1.49a1.68,1.68,0,0,0,.35-1.89l-1.42-3.15a13.58,13.58,0,0,0,1.16-2.87l3.18-1a1.75,1.75,0,0,0,1.25-1.67V16.64A1.68,1.68,0,0,0,34,15.06Zm-16.4,11.6a9,9,0,1,1,9-9A9,9,0,0,1,17.57,26.66Z"/></g></g></svg>