<svg xmlns="http://www.w3.org/2000/svg" viewBox="0 0 35.18 35"><defs><style>.cls-1{fill:#ffffff;}.cls-2{fill:none;}</style></defs><g id="Layer_2" data-name="Layer 2"><g id="Layer_1-2" data-name="Layer 1"><path class="cls-1" d="M35.17,21.86c-.25.84-.52,1.67-.76,2.51l-2,7c0,.07,0,.16-.06.2S32,32,31.86,32a.72.72,0,0,1-.53-.33c-.39-.66-.74-1.35-1.11-2a1.63,1.63,0,0,0-.28-.41,1.41,1.41,0,0,1-.19.34,16.22,16.22,0,0,1-8.78,5A16,16,0,0,1,6.64,30.8a16.66,16.66,0,0,1-5.5-9.73A22.32,22.32,0,0,1,.84,18a1.77,1.77,0,0,1,1.7-2,1.79,1.79,0,0,1,1.84,1.88,14.26,14.26,0,0,0,.54,3.74,13.45,13.45,0,0,0,3.45,5.87,13,13,0,0,0,10.26,3.8,13.07,13.07,0,0,0,8.82-4.54l.12-.15a2.4,2.4,0,0,0-.29-.19l-2.4-1.36c-.24-.13-.43-.29-.39-.59s.23-.43.5-.51l9.36-2.82a.64.64,0,0,1,.82.28Z"/><path class="cls-1" d="M7.59,8.39,9.81,9.65a2.92,2.92,0,0,1,.57.33.78.78,0,0,1,.27.54.73.73,0,0,1-.42.47c-1,.33-2,.62-3,.93L.87,13.82a1,1,0,0,1-.59,0C0,13.69,0,13.39.05,13.08.67,11,1.27,8.81,1.88,6.68c.31-1.06.62-2.13.92-3.2C2.88,3.2,3,3,3.31,3s.45.18.58.42L5.12,5.65c.53-.51,1-1,1.54-1.48A16.32,16.32,0,0,1,15,.2a16.78,16.78,0,0,1,18.8,12.74,17.08,17.08,0,0,1,.51,4.21,1.79,1.79,0,0,1-1.41,1.79A1.7,1.7,0,0,1,31,18a2.72,2.72,0,0,1-.2-1,13.51,13.51,0,0,0-3-8.41,12.63,12.63,0,0,0-8.09-4.73,12.76,12.76,0,0,0-12,4.39Z"/><rect class="cls-2" x="0.18" width="35" height="35"/></g></g></svg>