<svg xmlns="http://www.w3.org/2000/svg" viewBox="0 0 35 35"><defs><style>.cls-1{fill:#2e388d;}.cls-2{fill:none;}</style></defs><g id="Layer_2" data-name="Layer 2"><g id="Layer_1-2" data-name="Layer 1"><path class="cls-1" d="M8.63,12.26H1.71A1.66,1.66,0,0,1,0,10.6V6.11A1.67,1.67,0,0,1,1.71,4.44H8.63A1.67,1.67,0,0,1,10.3,6.11V10.6A1.66,1.66,0,0,1,8.63,12.26Zm-6.92-7a.83.83,0,0,0-.83.83V10.6a.83.83,0,0,0,.83.82H8.63a.82.82,0,0,0,.82-.82V6.11a.82.82,0,0,0-.82-.83Z"/><path class="cls-1" d="M8.63,21.41H1.71A1.67,1.67,0,0,1,0,19.75v-4.5a1.67,1.67,0,0,1,1.67-1.66H8.63a1.67,1.67,0,0,1,1.67,1.66v4.5A1.67,1.67,0,0,1,8.63,21.41Zm-6.92-7a.83.83,0,0,0-.83.82v4.5a.83.83,0,0,0,.83.82H8.63a.82.82,0,0,0,.82-.82v-4.5a.82.82,0,0,0-.82-.82Z"/><path class="cls-1" d="M8.63,30.56H1.71A1.67,1.67,0,0,1,0,28.89V24.4a1.66,1.66,0,0,1,1.67-1.66H8.63A1.66,1.66,0,0,1,10.3,24.4v4.49A1.67,1.67,0,0,1,8.63,30.56Zm-6.92-7a.83.83,0,0,0-.83.82v4.49a.83.83,0,0,0,.83.83H8.63a.82.82,0,0,0,.82-.83V24.4a.82.82,0,0,0-.82-.82Z"/><path class="cls-1" d="M21,12.26H14a1.66,1.66,0,0,1-1.67-1.66V6.11A1.67,1.67,0,0,1,14,4.44H21a1.67,1.67,0,0,1,1.67,1.67V10.6A1.66,1.66,0,0,1,21,12.26ZM14,5.28a.82.82,0,0,0-.82.83V10.6a.82.82,0,0,0,.82.82H21a.82.82,0,0,0,.82-.82V6.11A.82.82,0,0,0,21,5.28Z"/><path class="cls-1" d="M21,21.41H14a1.67,1.67,0,0,1-1.67-1.66v-4.5A1.67,1.67,0,0,1,14,13.59H21a1.67,1.67,0,0,1,1.67,1.66v4.5A1.67,1.67,0,0,1,21,21.41Zm-6.92-7a.82.82,0,0,0-.82.82v4.5a.82.82,0,0,0,.82.82H21a.82.82,0,0,0,.82-.82v-4.5a.82.82,0,0,0-.82-.82Z"/><path class="cls-1" d="M21,30.56H14a1.67,1.67,0,0,1-1.67-1.67V24.4A1.66,1.66,0,0,1,14,22.74H21a1.66,1.66,0,0,1,1.67,1.66v4.49A1.67,1.67,0,0,1,21,30.56Zm-6.92-7a.82.82,0,0,0-.82.82v4.49a.82.82,0,0,0,.82.83H21a.82.82,0,0,0,.82-.83V24.4a.82.82,0,0,0-.82-.82Z"/><path class="cls-1" d="M33.29,12.26H26.37A1.66,1.66,0,0,1,24.7,10.6V6.11a1.67,1.67,0,0,1,1.67-1.67h6.92A1.67,1.67,0,0,1,35,6.11V10.6A1.66,1.66,0,0,1,33.29,12.26Zm-6.92-7a.82.82,0,0,0-.82.83V10.6a.82.82,0,0,0,.82.82h6.92a.83.83,0,0,0,.83-.82V6.11a.83.83,0,0,0-.83-.83Z"/><path class="cls-1" d="M33.29,21.41H26.37a1.67,1.67,0,0,1-1.67-1.66v-4.5a1.67,1.67,0,0,1,1.67-1.66h6.92A1.67,1.67,0,0,1,35,15.25v4.5A1.67,1.67,0,0,1,33.29,21.41Zm-6.92-7a.82.82,0,0,0-.82.82v4.5a.82.82,0,0,0,.82.82h6.92a.83.83,0,0,0,.83-.82v-4.5a.83.83,0,0,0-.83-.82Z"/><path class="cls-1" d="M33.29,30.56H26.37a1.67,1.67,0,0,1-1.67-1.67V24.4a1.66,1.66,0,0,1,1.67-1.66h6.92A1.66,1.66,0,0,1,35,24.4v4.49A1.67,1.67,0,0,1,33.29,30.56Zm-6.92-7a.82.82,0,0,0-.82.82v4.49a.82.82,0,0,0,.82.83h6.92a.83.83,0,0,0,.83-.83V24.4a.83.83,0,0,0-.83-.82Z"/><rect class="cls-2" width="35" height="35"/></g></g></svg>