<svg xmlns="http://www.w3.org/2000/svg" viewBox="0 0 35 35"><defs><style>.cls-1{fill:none;}.cls-2{fill:#2c398f;}</style></defs><g id="Layer_2" data-name="Layer 2"><g id="Layer_1-2" data-name="Layer 1"><rect class="cls-1" width="35" height="35"/><path class="cls-2" d="M11.77,23.28l6-6q5.88-5.88,11.76-11.77a3.1,3.1,0,0,1,4.88.19,3,3,0,0,1-.06,3.63,4.14,4.14,0,0,1-.44.5L14.22,29.53a3,3,0,0,1-2.83,1,3.53,3.53,0,0,1-1.64-.78c-3-2.93-6-5.91-8.91-8.9a2.82,2.82,0,0,1-.59-3.2,2.92,2.92,0,0,1,2.63-1.92,3.18,3.18,0,0,1,2.6,1.09l5.72,5.73C11.39,22.76,11.54,23,11.77,23.28Z"/></g></g></svg>