<svg xmlns="http://www.w3.org/2000/svg" viewBox="0 0 35 35"><defs><style>.cls-1{fill:none;}.cls-2{fill:#2e388d;}</style></defs><g id="Layer_2" data-name="Layer 2"><g id="Layer_1-2" data-name="Layer 1"><path class="cls-1" d="M0,0V35H35V0ZM25.22,31V29.88"/><circle class="cls-2" cx="16.96" cy="9.64" r="9.64"/><path class="cls-2" d="M9.45,21.32S2.08,23.47,3.23,32.47c0,.12,1.13.41,1.24.44,1.13.38,2.28.69,3.44,1A39.06,39.06,0,0,0,19,35a25.26,25.26,0,0,0,12.06-3.62c.35-.22.16-2,.13-2.29a8.81,8.81,0,0,0-1.86-4.5,10.3,10.3,0,0,0-1.62-1.68c-.24-.21-1.95-1.7-2.21-1.54C25.5,21.32,16.82,26.37,9.45,21.32Z"/></g></g></svg>